# xmcd
#
# Track frame offsets:
#	150
#	14498
#	27284
#	40568
#	53737
#	66124
#	77972
#	90400
#	104131
#	116445
#	127904
#	142184
#	155646
#	168572
#	182721
#	195173
#	208942
#	222147
#	235115
#	249781
#	261221
#	276629
#	288858
#	301279
#	315857
#
# Disc length: 4385 seconds
# Revision: 0
# Processed by: cddbd v1.5.2PL0 Copyright (c) Steve Scherf et al.
# Submitted via: dBpowerAMP V12.0
#
DISCID=5f111f19
DTITLE=The Carter Family - Wildwood Flower, Disc 1 of 2
DYEAR=2009
DGENRE=Country
TTITLE0=Wildwood Flower
TTITLE1=Keep on the Sunny Side
TTITLE2=Wabash Cannonball
TTITLE3=John Hardy Was a Desperate Little Man
TTITLE4=Worried Man Blues
TTITLE5=River of Jordan
TTITLE6=Anchored in Love
TTITLE7=Where We'll Never Grow Old
TTITLE8=Hello Stranger
TTITLE9=I'll Be Home Someday
TTITLE10=Faded Coat of Blue
TTITLE11=Lonesome Pine Special
TTITLE12=The Little Log Hut in the Lane
TTITLE13=On the Rock Where Moses Stood
TTITLE14=Something Got Hold of Me
TTITLE15=Tell Me That You Love Me
TTITLE16=The Rambling Boy
TTITLE17=Sow 'Em on the Mountain
TTITLE18=Happiest Days of All
TTITLE19=Lonesome Homesick Blues
TTITLE20=The Poor Orphan Child
TTITLE21=I Ain't Gonna Work Tomorrow
TTITLE22=When This Evening Sun Goes Down
TTITLE23=Will You Miss Me When I'm Gone
TTITLE24=Bury Me Under the Weeping Willow Tree
EXTD=
EXTT0=
EXTT1=
EXTT2=
EXTT3=
EXTT4=
EXTT5=
EXTT6=
EXTT7=
EXTT8=
EXTT9=
EXTT10=
EXTT11=
EXTT12=
EXTT13=
EXTT14=
EXTT15=
EXTT16=
EXTT17=
EXTT18=
EXTT19=
EXTT20=
EXTT21=
EXTT22=
EXTT23=
EXTT24=
PLAYORDER=
